<mxfile host="app.diagrams.net" agent="Mozilla/5.0 (Windows NT 10.0; Win64; x64) AppleWebKit/537.36 (KHTML, like Gecko) Chrome/130.0.0.0 Safari/537.36" version="24.8.4">
  <diagram id="h0HMtS8k_FOHIYztohEI" name="Page-1">
    <mxGraphModel dx="1623" dy="666" grid="1" gridSize="10" guides="1" tooltips="1" connect="1" arrows="1" fold="1" page="1" pageScale="1" pageWidth="850" pageHeight="1100" math="0" shadow="0">
      <root>
        <mxCell id="0" />
        <mxCell id="1" parent="0" />
        <mxCell id="2" value="FileMetadata" style="swimlane;childLayout=stackLayout;horizontal=1;startSize=26;horizontalStack=0;resizeParent=1;fillColor=#B3E5FC;fontSize=16;rounded=1;" parent="1" vertex="1">
          <mxGeometry x="20" y="90" width="190" height="266" as="geometry" />
        </mxCell>
        <mxCell id="3" value="id" style="style=&quot;text;strokeColor=#000000;strokeWidth=2;fillColor=none;fontSize=12;align=left;leftPadding=100px;rightPadding=100;&quot;" parent="2" vertex="1">
          <mxGeometry y="26" width="190" height="30" as="geometry" />
        </mxCell>
        <mxCell id="4" value="Â path" style="style=&quot;text;strokeColor=#000000;strokeWidth=2;fillColor=none;fontSize=12;align=left;leftPadding=10;&quot;" parent="2" vertex="1">
          <mxGeometry y="56" width="190" height="30" as="geometry" />
        </mxCell>
        <mxCell id="5" value="name (optional)" style="style=&quot;text;strokeColor=#000000;strokeWidth=2;fillColor=none;fontSize=12;align=left;leftPadding=10;&quot;" parent="2" vertex="1">
          <mxGeometry y="86" width="190" height="30" as="geometry" />
        </mxCell>
        <mxCell id="6" value="created_at" style="style=&quot;text;strokeColor=#000000;strokeWidth=2;fillColor=none;fontSize=12;align=left;leftPadding=10;&quot;" vertex="1" parent="2">
          <mxGeometry y="116" width="190" height="30" as="geometry" />
        </mxCell>
        <mxCell id="7" value="updated_at" style="style=&quot;text;strokeColor=#000000;strokeWidth=2;fillColor=none;fontSize=12;align=left;leftPadding=10;&quot;" vertex="1" parent="2">
          <mxGeometry y="146" width="190" height="30" as="geometry" />
        </mxCell>
        <mxCell id="8" value="owner: userId" style="style=&quot;text;strokeColor=#000000;strokeWidth=2;fillColor=none;fontSize=12;align=left;leftPadding=10;&quot;" vertex="1" parent="2">
          <mxGeometry y="176" width="190" height="30" as="geometry" />
        </mxCell>
        <mxCell id="9" value="extension" style="style=&quot;text;strokeColor=#000000;strokeWidth=2;fillColor=none;fontSize=12;align=left;leftPadding=10;&quot;" vertex="1" parent="2">
          <mxGeometry y="206" width="190" height="30" as="geometry" />
        </mxCell>
        <mxCell id="10" value="size" style="style=&quot;text;strokeColor=#000000;strokeWidth=2;fillColor=none;fontSize=12;align=left;leftPadding=10;&quot;" vertex="1" parent="2">
          <mxGeometry y="236" width="190" height="30" as="geometry" />
        </mxCell>
        <mxCell id="RoxQlRH1KCIAk1HhKfcB-27" value="Operation" style="swimlane;childLayout=stackLayout;horizontal=1;startSize=26;horizontalStack=0;resizeParent=1;fillColor=#B3E5FC;fontSize=16;rounded=1;" vertex="1" parent="1">
          <mxGeometry x="330" y="90" width="180" height="266" as="geometry" />
        </mxCell>
        <mxCell id="RoxQlRH1KCIAk1HhKfcB-28" value="id" style="style=&quot;text;strokeColor=#000000;strokeWidth=2;fillColor=none;fontSize=12;align=left;leftPadding=10;&quot;" vertex="1" parent="RoxQlRH1KCIAk1HhKfcB-27">
          <mxGeometry y="26" width="180" height="30" as="geometry" />
        </mxCell>
        <mxCell id="RoxQlRH1KCIAk1HhKfcB-29" value="type" style="style=&quot;text;strokeColor=#000000;strokeWidth=2;fillColor=none;fontSize=12;align=left;leftPadding=10;&quot;" vertex="1" parent="RoxQlRH1KCIAk1HhKfcB-27">
          <mxGeometry y="56" width="180" height="30" as="geometry" />
        </mxCell>
        <mxCell id="RoxQlRH1KCIAk1HhKfcB-30" value="from_offset" style="style=&quot;text;strokeColor=#000000;strokeWidth=2;fillColor=none;fontSize=12;align=left;leftPadding=10;&quot;" vertex="1" parent="RoxQlRH1KCIAk1HhKfcB-27">
          <mxGeometry y="86" width="180" height="30" as="geometry" />
        </mxCell>
        <mxCell id="RoxQlRH1KCIAk1HhKfcB-31" value="to_offset" style="style=&quot;text;strokeColor=#000000;strokeWidth=2;fillColor=none;fontSize=12;align=left;leftPadding=10;&quot;" vertex="1" parent="RoxQlRH1KCIAk1HhKfcB-27">
          <mxGeometry y="116" width="180" height="30" as="geometry" />
        </mxCell>
        <mxCell id="RoxQlRH1KCIAk1HhKfcB-32" value="file_id" style="style=&quot;text;strokeColor=#000000;strokeWidth=2;fillColor=none;fontSize=12;align=left;leftPadding=10;&quot;" vertex="1" parent="RoxQlRH1KCIAk1HhKfcB-27">
          <mxGeometry y="146" width="180" height="30" as="geometry" />
        </mxCell>
        <mxCell id="RoxQlRH1KCIAk1HhKfcB-51" value="updated_content" style="style=&quot;text;strokeColor=#000000;strokeWidth=2;fillColor=none;fontSize=12;align=left;leftPadding=10;&quot;" vertex="1" parent="RoxQlRH1KCIAk1HhKfcB-27">
          <mxGeometry y="176" width="180" height="30" as="geometry" />
        </mxCell>
        <mxCell id="RoxQlRH1KCIAk1HhKfcB-52" value="created_at" style="style=&quot;text;strokeColor=#000000;strokeWidth=2;fillColor=none;fontSize=12;align=left;leftPadding=10;&quot;" vertex="1" parent="RoxQlRH1KCIAk1HhKfcB-27">
          <mxGeometry y="206" width="180" height="30" as="geometry" />
        </mxCell>
        <mxCell id="RoxQlRH1KCIAk1HhKfcB-53" value="updated_at" style="style=&quot;text;strokeColor=#000000;strokeWidth=2;fillColor=none;fontSize=12;align=left;leftPadding=10;&quot;" vertex="1" parent="RoxQlRH1KCIAk1HhKfcB-27">
          <mxGeometry y="236" width="180" height="30" as="geometry" />
        </mxCell>
        <mxCell id="RoxQlRH1KCIAk1HhKfcB-37" value="User" style="swimlane;childLayout=stackLayout;horizontal=1;startSize=26;horizontalStack=0;resizeParent=1;fillColor=#B3E5FC;fontSize=16;rounded=1;" vertex="1" parent="1">
          <mxGeometry x="25" y="450" width="180" height="176" as="geometry" />
        </mxCell>
        <mxCell id="RoxQlRH1KCIAk1HhKfcB-38" value="id" style="style=&quot;text;strokeColor=#000000;strokeWidth=2;fillColor=none;fontSize=12;align=left;leftPadding=10;&quot;" vertex="1" parent="RoxQlRH1KCIAk1HhKfcB-37">
          <mxGeometry y="26" width="180" height="30" as="geometry" />
        </mxCell>
        <mxCell id="RoxQlRH1KCIAk1HhKfcB-39" value="username" style="style=&quot;text;strokeColor=#000000;strokeWidth=2;fillColor=none;fontSize=12;align=left;leftPadding=10;&quot;" vertex="1" parent="RoxQlRH1KCIAk1HhKfcB-37">
          <mxGeometry y="56" width="180" height="30" as="geometry" />
        </mxCell>
        <mxCell id="RoxQlRH1KCIAk1HhKfcB-40" value="password" style="style=&quot;text;strokeColor=#000000;strokeWidth=2;fillColor=none;fontSize=12;align=left;leftPadding=10;&quot;" vertex="1" parent="RoxQlRH1KCIAk1HhKfcB-37">
          <mxGeometry y="86" width="180" height="30" as="geometry" />
        </mxCell>
        <mxCell id="RoxQlRH1KCIAk1HhKfcB-41" value="created_at" style="style=&quot;text;strokeColor=#000000;strokeWidth=2;fillColor=none;fontSize=12;align=left;leftPadding=10;&quot;" vertex="1" parent="RoxQlRH1KCIAk1HhKfcB-37">
          <mxGeometry y="116" width="180" height="30" as="geometry" />
        </mxCell>
        <mxCell id="RoxQlRH1KCIAk1HhKfcB-42" value="updated_at" style="style=&quot;text;strokeColor=#000000;strokeWidth=2;fillColor=none;fontSize=12;align=left;leftPadding=10;&quot;" vertex="1" parent="RoxQlRH1KCIAk1HhKfcB-37">
          <mxGeometry y="146" width="180" height="30" as="geometry" />
        </mxCell>
        <mxCell id="RoxQlRH1KCIAk1HhKfcB-43" value="Logs" style="swimlane;childLayout=stackLayout;horizontal=1;startSize=26;horizontalStack=0;resizeParent=1;fillColor=#B3E5FC;fontSize=16;rounded=1;" vertex="1" parent="1">
          <mxGeometry x="630" y="90" width="170" height="236" as="geometry" />
        </mxCell>
        <mxCell id="RoxQlRH1KCIAk1HhKfcB-44" value="id" style="style=&quot;text;strokeColor=#000000;strokeWidth=2;fillColor=none;fontSize=12;align=left;leftPadding=10;&quot;" vertex="1" parent="RoxQlRH1KCIAk1HhKfcB-43">
          <mxGeometry y="26" width="170" height="30" as="geometry" />
        </mxCell>
        <mxCell id="RoxQlRH1KCIAk1HhKfcB-45" value="type" style="style=&quot;text;strokeColor=#000000;strokeWidth=2;fillColor=none;fontSize=12;align=left;leftPadding=10;&quot;" vertex="1" parent="RoxQlRH1KCIAk1HhKfcB-43">
          <mxGeometry y="56" width="170" height="30" as="geometry" />
        </mxCell>
        <mxCell id="RoxQlRH1KCIAk1HhKfcB-46" value="message" style="style=&quot;text;strokeColor=#000000;strokeWidth=2;fillColor=none;fontSize=12;align=left;leftPadding=10;&quot;" vertex="1" parent="RoxQlRH1KCIAk1HhKfcB-43">
          <mxGeometry y="86" width="170" height="30" as="geometry" />
        </mxCell>
        <mxCell id="RoxQlRH1KCIAk1HhKfcB-70" value="operation_id" style="style=&quot;text;strokeColor=#000000;strokeWidth=2;fillColor=none;fontSize=12;align=left;leftPadding=10;&quot;" vertex="1" parent="RoxQlRH1KCIAk1HhKfcB-43">
          <mxGeometry y="116" width="170" height="30" as="geometry" />
        </mxCell>
        <mxCell id="RoxQlRH1KCIAk1HhKfcB-69" value="file_id" style="style=&quot;text;strokeColor=#000000;strokeWidth=2;fillColor=none;fontSize=12;align=left;leftPadding=10;&quot;" vertex="1" parent="RoxQlRH1KCIAk1HhKfcB-43">
          <mxGeometry y="146" width="170" height="30" as="geometry" />
        </mxCell>
        <mxCell id="RoxQlRH1KCIAk1HhKfcB-47" value="created_at" style="style=&quot;text;strokeColor=#000000;strokeWidth=2;fillColor=none;fontSize=12;align=left;leftPadding=10;&quot;" vertex="1" parent="RoxQlRH1KCIAk1HhKfcB-43">
          <mxGeometry y="176" width="170" height="30" as="geometry" />
        </mxCell>
        <mxCell id="RoxQlRH1KCIAk1HhKfcB-48" value="updated_at" style="style=&quot;text;strokeColor=#000000;strokeWidth=2;fillColor=none;fontSize=12;align=left;leftPadding=10;&quot;" vertex="1" parent="RoxQlRH1KCIAk1HhKfcB-43">
          <mxGeometry y="206" width="170" height="30" as="geometry" />
        </mxCell>
        <mxCell id="RoxQlRH1KCIAk1HhKfcB-54" value="" style="fontSize=12;html=1;endArrow=ERoneToMany;rounded=0;exitX=1;exitY=0.5;exitDx=0;exitDy=0;entryX=0;entryY=0.5;entryDx=0;entryDy=0;" edge="1" parent="1" source="3" target="RoxQlRH1KCIAk1HhKfcB-32">
          <mxGeometry width="100" height="100" relative="1" as="geometry">
            <mxPoint x="500" y="420" as="sourcePoint" />
            <mxPoint x="600" y="320" as="targetPoint" />
            <Array as="points">
              <mxPoint x="290" y="131" />
              <mxPoint x="290" y="251" />
            </Array>
          </mxGeometry>
        </mxCell>
        <mxCell id="RoxQlRH1KCIAk1HhKfcB-66" value="" style="fontSize=12;html=1;endArrow=ERoneToMany;rounded=0;exitX=1;exitY=0.5;exitDx=0;exitDy=0;entryX=1;entryY=0.5;entryDx=0;entryDy=0;" edge="1" parent="1" source="RoxQlRH1KCIAk1HhKfcB-38" target="8">
          <mxGeometry width="100" height="100" relative="1" as="geometry">
            <mxPoint x="510" y="440" as="sourcePoint" />
            <mxPoint x="610" y="340" as="targetPoint" />
            <Array as="points">
              <mxPoint x="240" y="490" />
              <mxPoint x="240" y="390" />
              <mxPoint x="240" y="281" />
            </Array>
          </mxGeometry>
        </mxCell>
        <mxCell id="RoxQlRH1KCIAk1HhKfcB-71" value="" style="fontSize=12;html=1;endArrow=ERoneToMany;rounded=0;exitX=1;exitY=0.75;exitDx=0;exitDy=0;movable=1;resizable=1;rotatable=1;deletable=1;editable=1;locked=0;connectable=1;entryX=0;entryY=0.5;entryDx=0;entryDy=0;" edge="1" parent="1" source="3" target="RoxQlRH1KCIAk1HhKfcB-69">
          <mxGeometry width="100" height="100" relative="1" as="geometry">
            <mxPoint x="510" y="440" as="sourcePoint" />
            <mxPoint x="600" y="250" as="targetPoint" />
            <Array as="points">
              <mxPoint x="270" y="140" />
              <mxPoint x="270" y="390" />
              <mxPoint x="600" y="390" />
              <mxPoint x="600" y="250" />
            </Array>
          </mxGeometry>
        </mxCell>
        <mxCell id="RoxQlRH1KCIAk1HhKfcB-73" value="" style="edgeStyle=entityRelationEdgeStyle;fontSize=12;html=1;endArrow=ERmandOne;startArrow=ERmandOne;rounded=0;exitX=1;exitY=0.5;exitDx=0;exitDy=0;entryX=0;entryY=0.5;entryDx=0;entryDy=0;" edge="1" parent="1" source="RoxQlRH1KCIAk1HhKfcB-28" target="RoxQlRH1KCIAk1HhKfcB-70">
          <mxGeometry width="100" height="100" relative="1" as="geometry">
            <mxPoint x="510" y="440" as="sourcePoint" />
            <mxPoint x="610" y="340" as="targetPoint" />
          </mxGeometry>
        </mxCell>
      </root>
    </mxGraphModel>
  </diagram>
</mxfile>
